<svg width="48" height="48" viewBox="0 0 48 48" fill="none" xmlns="http://www.w3.org/2000/svg">
<path d="M32.5 3.99999C36.2 3.99999 39.5 6.19999 41.2 9.59999L44.8 17.2C47.2 22.2 45.8 28.2 41.6 31.8L28.4 43.2C26.6 44.8 24.2 45.2 22 44.4L12.8 41C10.2 40 8.60001 37.4 8.80001 34.6L9.60001 22.4C9.80001 18.8 11.4 15.4 14 13L24.6 3.59999C26.8 1.59999 29.6 3.99999 32.5 3.99999Z" fill="url(#paint0_linear_78673_147253)"/>
<path d="M32.5 3.99999C36.2 3.99999 39.5 6.19999 41.2 9.59999L44.8 17.2C47.2 22.2 45.8 28.2 41.6 31.8L28.4 43.2C26.6 44.8 24.2 45.2 22 44.4L12.8 41C10.2 40 8.60001 37.4 8.80001 34.6L9.60001 22.4C9.80001 18.8 11.4 15.4 14 13L24.6 3.59999C26.8 1.59999 29.6 3.99999 32.5 3.99999Z" fill="url(#paint1_linear_78673_147253)" fill-opacity="0.5"/>
<path d="M22.8 6.00003C19.2 4.80003 15.2 6.00003 12.4 9.00003L4.6 17.4C2 20.2 1.2 24.2 2.6 27.8L7.4 40.2C8.4 42.8 10.8 44.4 13.6 44.4L25.4 44C29.2 43.8 32.6 41.8 34.6 38.6L41 28C43.2 24.4 43 20 40.6 16.6L34.2 7.40003C32.4 4.80003 29 3.80003 26 5.00003L22.8 6.00003Z" fill="url(#paint2_linear_78673_147253)"/>
<path d="M22.8 6.00003C19.2 4.80003 15.2 6.00003 12.4 9.00003L4.6 17.4C2 20.2 1.2 24.2 2.6 27.8L7.4 40.2C8.4 42.8 10.8 44.4 13.6 44.4L25.4 44C29.2 43.8 32.6 41.8 34.6 38.6L41 28C43.2 24.4 43 20 40.6 16.6L34.2 7.40003C32.4 4.80003 29 3.80003 26 5.00003L22.8 6.00003Z" fill="url(#paint3_radial_78673_147253)" fill-opacity="0.4"/>
<path d="M22.8 6.00003C19.2 4.80003 15.2 6.00003 12.4 9.00003L4.6 17.4C2 20.2 1.2 24.2 2.6 27.8L7.4 40.2C8.4 42.8 10.8 44.4 13.6 44.4L25.4 44C29.2 43.8 32.6 41.8 34.6 38.6L41 28C43.2 24.4 43 20 40.6 16.6L34.2 7.40003C32.4 4.80003 29 3.80003 26 5.00003L22.8 6.00003Z" fill="url(#paint4_linear_78673_147253)" fill-opacity="0.3"/>
<path d="M18 14C14.4 14.8 11.6 17.8 11 21.4L9.4 30.8C8.8 34 10.4 37.2 13.2 38.8L19.6 42.4C21.6 43.6 24 43.4 25.8 42L32.4 36.8C34.8 34.8 35.4 31.4 33.8 28.8L27.4 18.2C25.4 14.8 21.4 13.2 18 14Z" fill="url(#paint5_linear_78673_147253)"/>
<path d="M18 14C14.4 14.8 11.6 17.8 11 21.4L9.4 30.8C8.8 34 10.4 37.2 13.2 38.8L19.6 42.4C21.6 43.6 24 43.4 25.8 42L32.4 36.8C34.8 34.8 35.4 31.4 33.8 28.8L27.4 18.2C25.4 14.8 21.4 13.2 18 14Z" fill="url(#paint6_linear_78673_147253)" fill-opacity="0.5"/>
<path d="M20 22C18.2 22.4 17 24 17 25.8C17 27.8 18.6 29.4 20.6 29.4C22.6 29.4 24.4 28 24.8 26C25.2 24 24 22 22 21.4C21.4 21.2 20.6 21.8 20 22Z" fill="url(#paint7_linear_78673_147253)"/>
<defs>
<linearGradient id="paint0_linear_78673_147253" x1="44" y1="7.99999" x2="10" y2="44" gradientUnits="userSpaceOnUse">
<stop stop-color="#0F766E"/>
<stop offset="0.5" stop-color="#115E59"/>
<stop offset="1" stop-color="#134E4A"/>
</linearGradient>
<linearGradient id="paint1_linear_78673_147253" x1="40" y1="40" x2="15" y2="9.99999" gradientUnits="userSpaceOnUse">
<stop stop-color="#042F2E"/>
<stop offset="0.6" stop-color="#042F2E" stop-opacity="0.4"/>
<stop offset="1" stop-color="#042F2E" stop-opacity="0"/>
</linearGradient>
<linearGradient id="paint2_linear_78673_147253" x1="5" y1="10" x2="40" y2="42" gradientUnits="userSpaceOnUse">
<stop stop-color="#2DD4BF"/>
<stop offset="0.45" stop-color="#14B8A6"/>
<stop offset="1" stop-color="#0D9488"/>
</linearGradient>
<radialGradient id="paint3_radial_78673_147253" cx="0" cy="0" r="1" gradientUnits="userSpaceOnUse" gradientTransform="translate(18 15) rotate(135) scale(30 25)">
<stop stop-color="#CCFBF1"/>
<stop offset="0.5" stop-color="#CCFBF1" stop-opacity="0.3"/>
<stop offset="1" stop-color="#CCFBF1" stop-opacity="0"/>
</radialGradient>
<linearGradient id="paint4_linear_78673_147253" x1="12" y1="42" x2="30" y2="20" gradientUnits="userSpaceOnUse">
<stop stop-color="#042F2E"/>
<stop offset="0.5" stop-color="#042F2E" stop-opacity="0.2"/>
<stop offset="1" stop-color="#042F2E" stop-opacity="0"/>
</linearGradient>
<linearGradient id="paint5_linear_78673_147253" x1="12" y1="18" x2="32" y2="40" gradientUnits="userSpaceOnUse">
<stop stop-color="#5EEAD4"/>
<stop offset="0.4" stop-color="#2DD4BF"/>
<stop offset="1" stop-color="#14B8A6"/>
</linearGradient>
<linearGradient id="paint6_linear_78673_147253" x1="14" y1="16" x2="28" y2="36" gradientUnits="userSpaceOnUse">
<stop stop-color="white"/>
<stop offset="0.3" stop-color="white" stop-opacity="0.4"/>
<stop offset="1" stop-color="white" stop-opacity="0"/>
</linearGradient>
<linearGradient id="paint7_linear_78673_147253" x1="17" y1="22" x2="25" y2="29" gradientUnits="userSpaceOnUse">
<stop stop-color="#F59E0B"/>
<stop offset="1" stop-color="#D97706"/>
</linearGradient>
</defs>
</svg>
